<?xml version="1.0" encoding="UTF-8"?>
<svg width="120px" height="120px" viewBox="0 0 120 120" version="1.1" xmlns="http://www.w3.org/2000/svg" xmlns:xlink="http://www.w3.org/1999/xlink">
    <title>automated-workflows</title>
    <g id="Icons-Business-Solutions" stroke="none" stroke-width="1" fill="none" fill-rule="evenodd">
        <g id="automated-workflows" fill="#58708D" fill-rule="nonzero">
            <path d="M0.16,83.216 C0.23,84.096 0.868,84.826 1.732,85.012 L8.702,86.516 C8.948,87.704 9.26,88.876 9.638,90.02 L4.362,94.8 C3.708,95.392 3.52,96.344 3.9,97.142 C4.864,99.17 5.938,101.044 7.092,102.712 C7.592,103.436 8.508,103.748 9.35,103.478 L16.124,101.296 C16.934,102.204 17.796,103.066 18.704,103.876 L16.522,110.65 C16.252,111.488 16.562,112.406 17.288,112.908 C18.956,114.062 20.83,115.136 22.858,116.1 C23.658,116.48 24.608,116.29 25.2,115.638 L29.98,110.362 C31.126,110.738 32.298,111.052 33.486,111.298 L34.99,118.268 C35.176,119.13 35.906,119.768 36.784,119.84 C37.848,119.924 38.914,120 40,120 C41.086,120 42.152,119.924 43.216,119.84 C44.096,119.77 44.826,119.132 45.012,118.268 L46.516,111.298 C47.704,111.052 48.878,110.74 50.022,110.362 L54.802,115.638 C55.396,116.292 56.348,116.482 57.144,116.1 C59.172,115.136 61.046,114.06 62.714,112.908 C63.44,112.406 63.75,111.488 63.48,110.65 L61.298,103.876 C62.206,103.066 63.068,102.204 63.878,101.298 L70.652,103.48 C71.49,103.752 72.408,103.44 72.91,102.714 C74.064,101.046 75.138,99.172 76.102,97.144 C76.482,96.346 76.294,95.394 75.64,94.802 L70.364,90.022 C70.74,88.876 71.054,87.704 71.3,86.516 L78.27,85.012 C79.132,84.826 79.77,84.096 79.842,83.218 C79.924,82.152 80,81.086 80,80 C80,78.914 79.924,77.848 79.84,76.784 C79.77,75.904 79.132,75.174 78.268,74.988 L71.298,73.484 C71.052,72.296 70.74,71.122 70.362,69.978 L75.638,65.198 C76.292,64.606 76.48,63.654 76.1,62.856 C75.136,60.828 74.06,58.954 72.908,57.286 C72.406,56.56 71.488,56.248 70.65,56.52 L63.876,58.702 C63.066,57.794 62.204,56.932 61.296,56.122 L63.478,49.348 C63.748,48.51 63.438,47.592 62.712,47.09 C61.044,45.936 59.17,44.862 57.142,43.898 C56.342,43.516 55.392,43.706 54.8,44.36 L50.02,49.636 C48.874,49.26 47.702,48.946 46.514,48.7 L45.01,41.73 C44.824,40.868 44.094,40.23 43.216,40.158 C41.086,39.986 38.912,39.99 36.782,40.158 C35.902,40.228 35.172,40.866 34.986,41.73 L33.482,48.7 C32.294,48.946 31.122,49.258 29.978,49.636 L25.198,44.36 C24.606,43.706 23.656,43.518 22.856,43.898 C20.828,44.862 18.954,45.936 17.286,47.09 C16.56,47.592 16.25,48.51 16.52,49.348 L18.702,56.122 C17.794,56.932 16.932,57.794 16.122,58.702 L9.35,56.52 C8.51,56.248 7.592,56.56 7.092,57.286 C5.938,58.954 4.864,60.828 3.9,62.856 C3.52,63.654 3.708,64.606 4.362,65.198 L9.638,69.978 C9.262,71.124 8.948,72.296 8.702,73.484 L1.732,74.988 C0.87,75.174 0.232,75.904 0.16,76.782 C0.076,77.848 2.84217094e-14,78.914 2.84217094e-14,80 C2.84217094e-14,81.086 0.076,82.152 0.16,83.216 L0.16,83.216 Z M4.042,78.582 L10.846,77.112 C11.65,76.938 12.266,76.29 12.398,75.478 C12.698,73.634 13.182,71.824 13.836,70.096 C14.128,69.328 13.918,68.458 13.308,67.906 L8.17,63.25 C8.618,62.392 9.086,61.57 9.57,60.792 L16.162,62.916 C16.942,63.166 17.802,62.916 18.324,62.28 C19.504,60.836 20.836,59.506 22.28,58.324 C22.916,57.804 23.17,56.946 22.916,56.162 L20.792,49.57 C21.57,49.084 22.39,48.616 23.25,48.17 L27.906,53.31 C28.46,53.92 29.332,54.13 30.098,53.838 C31.822,53.184 33.632,52.7 35.478,52.4 C36.29,52.268 36.938,51.652 37.112,50.848 L38.58,44.044 C39.522,43.994 40.48,43.992 41.418,44.044 L42.888,50.848 C43.062,51.652 43.71,52.268 44.522,52.4 C46.366,52.7 48.176,53.184 49.904,53.838 C50.668,54.13 51.54,53.922 52.094,53.31 L56.75,48.172 C57.608,48.62 58.43,49.088 59.208,49.572 L57.084,56.164 C56.832,56.948 57.084,57.804 57.72,58.326 C59.164,59.506 60.494,60.838 61.676,62.282 C62.198,62.92 63.056,63.174 63.838,62.918 L70.43,60.794 C70.916,61.572 71.384,62.392 71.83,63.25 L66.69,67.906 C66.08,68.458 65.87,69.328 66.162,70.098 C66.816,71.822 67.3,73.632 67.6,75.478 C67.732,76.29 68.348,76.938 69.152,77.112 L75.956,78.58 C75.982,79.05 76,79.524 76,80 C76,80.476 75.984,80.95 75.958,81.418 L69.154,82.888 C68.35,83.062 67.734,83.71 67.602,84.522 C67.302,86.366 66.818,88.176 66.164,89.904 C65.872,90.672 66.082,91.542 66.692,92.094 L71.83,96.75 C71.382,97.608 70.914,98.43 70.43,99.208 L63.838,97.084 C63.052,96.828 62.198,97.082 61.676,97.72 C60.498,99.16 59.166,100.492 57.72,101.676 C57.084,102.196 56.832,103.054 57.084,103.836 L59.208,110.428 C58.43,110.914 57.61,111.382 56.752,111.828 L52.096,106.688 C51.544,106.078 50.674,105.872 49.904,106.16 C48.18,106.814 46.37,107.298 44.524,107.598 C43.712,107.73 43.064,108.346 42.89,109.15 L41.422,115.954 C40.48,116.004 39.522,116.006 38.584,115.954 L37.114,109.15 C36.94,108.346 36.292,107.73 35.48,107.598 C33.636,107.298 31.826,106.814 30.098,106.16 C29.332,105.868 28.46,106.076 27.908,106.688 L23.252,111.826 C22.394,111.378 21.572,110.91 20.794,110.426 L22.918,103.834 C23.17,103.05 22.918,102.194 22.282,101.672 C20.838,100.492 19.508,99.16 18.326,97.716 C17.804,97.078 16.944,96.826 16.164,97.08 L9.572,99.204 C9.086,98.426 8.618,97.606 8.172,96.746 L13.312,92.09 C13.922,91.538 14.132,90.668 13.84,89.898 C13.186,88.174 12.702,86.364 12.402,84.518 C12.27,83.706 11.654,83.058 10.85,82.884 L4.042,81.42 C4.018,80.95 4,80.476 4,80 C4,79.524 4.016,79.05 4.042,78.582 L4.042,78.582 Z" id="Shape"></path>
            <path d="M104.438,28.47 C105.19,28.234 105.734,27.576 105.824,26.792 C105.944,25.782 106,24.868 106,24 C106,23.132 105.944,22.218 105.826,21.208 C105.736,20.424 105.192,19.766 104.44,19.53 L98.894,17.788 C98.728,17.334 98.544,16.888 98.342,16.452 L101.03,11.302 C101.394,10.604 101.314,9.756 100.826,9.136 C99.668,7.672 98.336,6.34 96.868,5.178 C96.248,4.688 95.4,4.61 94.702,4.972 L89.548,7.66 C89.112,7.46 88.666,7.276 88.212,7.11 L86.47,1.564 C86.234,0.812 85.576,0.268 84.792,0.178 C82.768,-0.058 81.23,-0.058 79.206,0.178 C78.422,0.268 77.764,0.812 77.528,1.564 L75.786,7.11 C75.332,7.276 74.886,7.46 74.45,7.662 L69.3,4.974 C68.602,4.612 67.756,4.69 67.134,5.178 C65.67,6.336 64.338,7.668 63.176,9.136 C62.686,9.756 62.606,10.602 62.97,11.302 L65.656,16.452 C65.456,16.888 65.272,17.334 65.106,17.788 L59.56,19.53 C58.808,19.766 58.264,20.424 58.174,21.208 C58.056,22.218 58,23.132 58,24 C58,24.868 58.056,25.782 58.174,26.792 C58.264,27.576 58.808,28.234 59.56,28.47 L65.106,30.212 C65.272,30.666 65.456,31.112 65.658,31.548 L62.97,36.698 C62.606,37.396 62.686,38.244 63.174,38.864 C64.332,40.328 65.664,41.66 67.132,42.822 C67.75,43.312 68.6,43.39 69.298,43.028 L74.448,40.342 C74.884,40.542 75.33,40.726 75.784,40.892 L77.526,46.438 C77.762,47.19 78.42,47.734 79.204,47.824 C80.218,47.944 81.132,48 82,48 C82.868,48 83.782,47.944 84.792,47.826 C85.576,47.736 86.234,47.192 86.47,46.44 L88.212,40.894 C88.666,40.728 89.112,40.544 89.548,40.342 L94.698,43.03 C95.396,43.394 96.244,43.316 96.864,42.826 C98.328,41.668 99.66,40.336 100.822,38.868 C101.312,38.248 101.392,37.402 101.028,36.702 L98.34,31.552 C98.542,31.116 98.726,30.67 98.892,30.216 L104.438,28.47 Z M96.718,26.702 C96.086,26.902 95.594,27.4 95.402,28.036 C95.13,28.94 94.77,29.81 94.334,30.624 C94.02,31.208 94.014,31.91 94.322,32.496 L96.86,37.36 C96.386,37.886 95.884,38.388 95.36,38.86 L90.496,36.322 C89.908,36.014 89.206,36.022 88.624,36.334 C87.81,36.77 86.94,37.13 86.036,37.402 C85.402,37.592 84.902,38.086 84.702,38.718 L83.054,43.966 C82.324,44.01 81.678,44.01 80.946,43.966 L79.298,38.718 C79.098,38.086 78.6,37.594 77.964,37.402 C77.058,37.13 76.188,36.77 75.378,36.334 C74.794,36.02 74.092,36.014 73.504,36.322 L68.64,38.86 C68.114,38.386 67.612,37.884 67.14,37.36 L69.678,32.496 C69.984,31.91 69.98,31.206 69.666,30.624 C69.23,29.81 68.87,28.94 68.598,28.036 C68.408,27.402 67.914,26.902 67.282,26.702 L62.034,25.054 C62.01,24.688 62,24.338 62,24 C62,23.662 62.01,23.312 62.034,22.946 L67.282,21.298 C67.914,21.098 68.406,20.6 68.598,19.964 C68.87,19.058 69.23,18.188 69.666,17.378 C69.98,16.794 69.986,16.092 69.678,15.504 L67.14,10.64 C67.614,10.114 68.116,9.612 68.64,9.14 L73.504,11.678 C74.09,11.984 74.794,11.978 75.376,11.666 C76.19,11.23 77.06,10.87 77.964,10.598 C78.598,10.408 79.098,9.914 79.298,9.282 L80.946,4.034 C81.676,3.99 82.322,3.99 83.054,4.034 L84.702,9.282 C84.902,9.914 85.4,10.406 86.036,10.598 C86.942,10.87 87.812,11.23 88.622,11.666 C89.206,11.98 89.908,11.986 90.496,11.678 L95.36,9.14 C95.886,9.614 96.388,10.116 96.86,10.64 L94.322,15.504 C94.016,16.09 94.02,16.794 94.334,17.376 C94.77,18.19 95.13,19.06 95.402,19.964 C95.592,20.598 96.086,21.098 96.718,21.298 L101.966,22.946 C101.99,23.312 102,23.662 102,24 C102,24.338 101.99,24.688 101.966,25.054 L96.718,26.702 Z" id="Shape"></path>
            <path d="M118.524,65.928 L115.088,64.708 C114.892,64.15 114.668,63.604 114.414,63.074 L115.976,59.784 C116.302,59.1 116.212,58.292 115.744,57.696 C114.744,56.418 113.588,55.26 112.306,54.256 C111.708,53.788 110.896,53.7 110.216,54.024 L106.924,55.586 C106.396,55.334 105.85,55.108 105.292,54.914 L104.07,51.478 C103.816,50.764 103.178,50.254 102.426,50.162 C100.644,49.948 99.354,49.948 97.572,50.162 C96.82,50.252 96.182,50.762 95.928,51.478 L94.708,54.914 C94.15,55.11 93.604,55.334 93.074,55.588 L89.784,54.026 C89.104,53.702 88.294,53.792 87.696,54.258 C86.418,55.258 85.26,56.414 84.256,57.696 C83.79,58.292 83.7,59.102 84.024,59.786 L85.586,63.078 C85.334,63.606 85.108,64.152 84.914,64.71 L81.478,65.932 C80.764,66.186 80.254,66.824 80.162,67.576 C80.052,68.462 80,69.256 80,70 C80,70.744 80.052,71.536 80.16,72.426 C80.25,73.178 80.76,73.816 81.476,74.07 L84.912,75.29 C85.108,75.848 85.332,76.394 85.586,76.924 L84.024,80.214 C83.698,80.898 83.788,81.706 84.256,82.302 C85.256,83.58 86.412,84.738 87.694,85.742 C88.29,86.208 89.102,86.298 89.784,85.974 L93.076,84.412 C93.604,84.664 94.15,84.89 94.708,85.084 L95.93,88.52 C96.184,89.234 96.822,89.744 97.574,89.836 C98.464,89.948 99.256,90 100,90 C100.744,90 101.536,89.948 102.426,89.84 C103.178,89.75 103.816,89.24 104.07,88.524 L105.29,85.088 C105.848,84.892 106.394,84.668 106.924,84.414 L110.214,85.976 C110.896,86.302 111.708,86.214 112.302,85.744 C113.58,84.744 114.738,83.588 115.742,82.306 C116.208,81.71 116.298,80.9 115.974,80.216 L114.412,76.924 C114.664,76.396 114.89,75.85 115.084,75.292 L118.52,74.07 C119.234,73.816 119.744,73.178 119.836,72.426 C119.948,71.536 120,70.744 120,70 C120,69.256 119.948,68.464 119.84,67.574 C119.75,66.82 119.24,66.184 118.524,65.928 L118.524,65.928 Z M115.98,70.73 L112.81,71.856 C112.196,72.074 111.726,72.578 111.552,73.206 C111.29,74.156 110.916,75.062 110.442,75.9 C110.122,76.466 110.098,77.154 110.376,77.742 L111.812,80.768 C111.48,81.132 111.132,81.48 110.77,81.81 L107.744,80.374 C107.16,80.096 106.47,80.12 105.902,80.44 C105.062,80.916 104.156,81.288 103.21,81.55 C102.582,81.724 102.078,82.194 101.858,82.808 L100.732,85.978 C100.248,86.004 99.756,86.004 99.272,85.978 L98.146,82.808 C97.928,82.194 97.424,81.724 96.796,81.55 C95.846,81.288 94.94,80.914 94.102,80.44 C93.536,80.122 92.85,80.098 92.26,80.374 L89.234,81.81 C88.87,81.478 88.522,81.13 88.192,80.768 L89.628,77.742 C89.908,77.154 89.882,76.466 89.562,75.9 C89.086,75.06 88.714,74.154 88.452,73.208 C88.278,72.58 87.808,72.076 87.194,71.856 L84.024,70.73 C84.008,70.488 84,70.246 84,70 C84,69.754 84.008,69.51 84.02,69.27 L87.19,68.142 C87.804,67.924 88.274,67.42 88.446,66.792 C88.71,65.84 89.084,64.936 89.558,64.098 C89.878,63.532 89.902,62.844 89.624,62.256 L88.188,59.23 C88.52,58.866 88.868,58.518 89.23,58.188 L92.256,59.624 C92.844,59.904 93.532,59.88 94.098,59.558 C94.938,59.082 95.844,58.71 96.79,58.448 C97.418,58.274 97.922,57.804 98.142,57.19 L99.268,54.02 C99.752,53.994 100.244,53.994 100.728,54.02 L101.854,57.19 C102.072,57.804 102.576,58.274 103.204,58.448 C104.154,58.71 105.06,59.084 105.898,59.558 C106.466,59.88 107.152,59.904 107.74,59.624 L110.766,58.188 C111.13,58.52 111.478,58.868 111.808,59.23 L110.372,62.256 C110.092,62.844 110.118,63.532 110.438,64.098 C110.914,64.938 111.286,65.844 111.548,66.79 C111.722,67.418 112.192,67.922 112.806,68.142 L115.976,69.268 C115.992,69.512 116,69.754 116,70 C116,70.246 115.992,70.488 115.98,70.73 L115.98,70.73 Z" id="Shape"></path>
            <path d="M40,102 C52.13,102 62,92.13 62,80 C62,67.87 52.13,58 40,58 C27.87,58 18,67.87 18,80 C18,92.13 27.87,102 40,102 Z M40,62 C49.924,62 58,70.076 58,80 C58,89.924 49.924,98 40,98 C30.076,98 22,89.924 22,80 C22,70.076 30.076,62 40,62 Z" id="Shape"></path>
            <path d="M0.044,46.718 L3.116,49.28 C12.274,38.298 25.716,32 40,32 C41.018,32 42.034,32.058 43.05,32.122 L40.586,34.586 L43.414,37.414 L49.414,31.414 C50.196,30.632 50.196,29.368 49.414,28.586 L43.414,22.586 L40.586,25.414 L43.304,28.132 C42.204,28.062 41.102,28 40,28 C24.528,28 9.964,34.822 0.044,46.718 L0.044,46.718 Z" id="Path"></path>
            <path d="M82,14 C76.486,14 72,18.486 72,24 C72,29.514 76.486,34 82,34 C87.514,34 92,29.514 92,24 C92,18.486 87.514,14 82,14 Z M82,30 C78.692,30 76,27.308 76,24 C76,20.692 78.692,18 82,18 C85.308,18 88,20.692 88,24 C88,27.308 85.308,30 82,30 Z" id="Shape"></path>
            <path d="M100,62 C95.588,62 92,65.588 92,70 C92,74.412 95.588,78 100,78 C104.412,78 108,74.412 108,70 C108,65.588 104.412,62 100,62 Z M100,74 C97.794,74 96,72.206 96,70 C96,67.794 97.794,66 100,66 C102.206,66 104,67.794 104,70 C104,72.206 102.206,74 100,74 Z" id="Shape"></path>
            <path d="M118.392,6.04 L108.392,4.04 C107.304,3.82 106.254,4.526 106.038,5.608 L104.038,15.608 L107.96,16.394 L109.038,11.01 C110.976,15.042 112,19.486 112,24 C112,30.896 109.724,37.38 105.42,42.75 L108.542,45.252 C113.352,39.25 116,31.704 116,24 C116,18.762 114.79,13.598 112.488,8.938 L117.608,9.962 L118.392,6.04 Z" id="Path"></path>
        </g>
    </g>
</svg>