<?xml version="1.0" encoding="UTF-8"?>
<svg width="120px" height="120px" viewBox="0 0 120 120" version="1.1" xmlns="http://www.w3.org/2000/svg" xmlns:xlink="http://www.w3.org/1999/xlink">
    <title>collaboration-tools</title>
    <g id="Icons-Business-Solutions" stroke="none" stroke-width="1" fill="none" fill-rule="evenodd">
        <g id="collaboration-tools" fill="#58708D" fill-rule="nonzero">
            <path d="M60,0 C53.3725,0 48,5.3725 48,12 C48,18.6275 53.3725,24 60,24 C66.62475,23.9935 71.9935,18.62475 72,12 C72,5.3725 66.6275,0 60,0 Z M60,20 C55.58175,20 52,16.41825 52,12 C52,7.58175 55.58175,4 60,4 C64.41825,4 68,7.58175 68,12 C68,16.41825 64.41825,20 60,20 Z" id="Shape"></path>
            <path d="M68,26 L67.528,26 L67.106,26.21 C62.63075,28.43825 57.36925,28.43825 52.894,26.21 L52.472,26 L52,26 C46.48,26.0065 42.0065,30.48 42,36 L42,48 C42,51.31375 44.68625,54 48,54 L72,54 C75.31375,54 78,51.31375 78,48 L78,36 C77.9935,30.48 73.52,26.0065 68,26 Z M74,48 C74,49.1045 73.1045,50 72,50 L48,50 C46.8955,50 46,49.1045 46,48 L46,36 C46.0005,32.852 48.43375,30.2395 51.574,30.016 C56.91775,32.496 63.0825,32.496 68.426,30.016 C71.566,30.2395 73.9995,32.852 74,36 L74,48 Z" id="Shape"></path>
            <path d="M102,66 C95.3725,66 90,71.3725 90,78 C90,84.6275 95.3725,90 102,90 C108.6275,90 114,84.6275 114,78 C113.9935,71.37525 108.62475,66.0065 102,66 Z M102,86 C97.58175,86 94,82.41825 94,78 C94,73.58175 97.58175,70 102,70 C106.41825,70 110,73.58175 110,78 C110,82.41825 106.41825,86 102,86 Z" id="Shape"></path>
            <path d="M110,92 L109.528,92 L109.106,92.2 C104.63075,94.428 99.36925,94.428 94.894,92.2 L94.472,92 L94,92 C88.48,92.0065 84.0065,96.48 84,102 L84,114 C84,117.31375 86.68625,120 90,120 L114,120 C117.31375,120 120,117.31375 120,114 L120,102 C119.9935,96.48 115.52,92.0065 110,92 Z M116,114 C116,115.1045 115.1045,116 114,116 L90,116 C88.8955,116 88,115.1045 88,114 L88,102 C88.0005,98.852 90.43375,96.2395 93.574,96.016 C98.91775,98.496 105.08225,98.496 110.426,96.016 C113.56625,96.2395 115.9995,98.852 116,102 L116,114 Z" id="Shape"></path>
            <path d="M18,66 C11.3725,66 6,71.3725 6,78 C6,84.6275 11.3725,90 18,90 C24.6275,90 30,84.6275 30,78 C29.9935,71.37525 24.62475,66.0065 18,66 Z M18,86 C13.58175,86 10,82.41825 10,78 C10,73.58175 13.58175,70 18,70 C22.41825,70 26,73.58175 26,78 C26,82.41825 22.41825,86 18,86 Z" id="Shape"></path>
            <path d="M26,92 L25.528,92 L25.106,92.2 C20.63075,94.428 15.36925,94.428 10.894,92.2 L10.472,92 L10,92 C4.48,92.0065 0.0065,96.48 0,102 L0,114 C0,117.31375 2.68625,120 6,120 L30,120 C33.31375,120 36,117.31375 36,114 L36,102 C35.9935,96.48 31.52,92.0065 26,92 Z M32,114 C32,115.1045 31.1045,116 30,116 L6,116 C4.8955,116 4,115.1045 4,114 L4,102 C4.0005,98.852 6.43375,96.2395 9.574,96.016 C14.91775,98.496 21.08225,98.496 26.426,96.016 C29.56625,96.2395 31.9995,98.852 32,102 L32,114 Z" id="Shape"></path>
            <path d="M79.843,101.569 C79.842,101.56675 79.841,101.5645 79.84,101.562 C79.407,100.54575 78.23225,100.073 77.21625,100.506 C77.21625,100.506 77.21625,100.506 77.21625,100.506 C68.185,104.291 58.155,104.9815 48.69025,102.47 L50.56225,101.92 C51.62275,101.6095 52.23075,100.4985 51.92025,99.438 C51.60975,98.3775 50.49875,97.7695 49.43825,98.08 L41.43825,100.426 C41.40825,100.426 41.38625,100.46 41.35825,100.47 C41.173,100.539 40.999,100.6355 40.84225,100.756 C40.77275,100.7935 40.706,100.8355 40.64225,100.882 C40.43125,101.07025 40.264,101.30225 40.15225,101.562 C40.04375,101.8235 39.992,102.105 40.00025,102.388 C40.049,102.65875 40.11575,102.926 40.20025,103.188 C40.21225,103.216 40.20025,103.248 40.22225,103.276 L44.22225,110.93 C44.73375,111.90975 45.9425,112.2895 46.92225,111.778 C47.902,111.2665 48.28175,110.05775 47.77025,109.078 L46.14225,105.966 C56.89575,109.1985 68.441,108.57025 78.78025,104.19 C79.79725,103.75975 80.27325,102.58625 79.843,101.569 Z" id="Path"></path>
            <path d="M113.414,52.586 C112.633,51.80525 111.367,51.80525 110.586,52.586 L107.756,55.416 C106.1,37.8985 94.97825,22.697 78.784,15.816 C77.76775,15.383 76.593,15.85575 76.16,16.872 C75.727,17.88825 76.19975,19.063 77.216,19.496 C91.7435,25.67025 101.842,39.16325 103.67,54.842 L101.414,52.586 C100.6195,51.8185 99.3535,51.8405 98.586,52.635 C97.8375,53.41 97.8375,54.63875 98.586,55.414 L104.586,61.414 C105.366,62.196 106.6325,62.19775 107.4145,61.4175 C107.41575,61.41625 107.417,61.415 107.418,61.414 L113.418,55.414 C114.19775,54.632 114.196,53.366 113.414,52.586 Z" id="Path"></path>
            <path d="M43.942,17.318 C43.9355,17.20125 43.91825,17.0855 43.89,16.972 C43.89,16.954 43.868,16.942 43.86,16.922 C43.852,16.902 43.86,16.888 43.86,16.872 C43.8055,16.77475 43.7425,16.68225 43.672,16.596 C43.60725,16.47875 43.53075,16.36825 43.444,16.266 C43.32575,16.16125 43.19475,16.072 43.054,16 C42.98375,15.94025 42.90875,15.886 42.83,15.838 L34.83,12.184 C33.80825,11.7645 32.63975,12.25275 32.22025,13.2745 C31.8235,14.24075 32.23725,15.34975 33.17,15.82 L37.312,17.714 C21.71875,26.05925 11.98875,42.314 11.9999903,60 C11.9999903,61.1045 12.8955,62 13.9999903,62 C15.1045,62 15.9999903,61.1045 15.9999903,60 C15.99,44.42675 24.22525,30.012 37.646,22.112 L36.2,25.134 C35.72325,26.12825 36.141,27.32075 37.134,27.8 C37.40375,27.93175 37.69975,28.00025 37.9999903,28 C38.768,27.999 39.4675,27.55825 39.8,26.866 L43.8,18.52 C43.8,18.5 43.8,18.478 43.816,18.458 C43.868,18.32125 43.90425,18.179 43.924,18.034 C43.95825,17.92625 43.98375,17.816 43.9999903,17.704 C43.99325,17.57375 43.974,17.4445 43.942,17.318 Z" id="Path"></path>
        </g>
    </g>
</svg>