<?xml version="1.0" encoding="UTF-8"?>
<svg width="120px" height="120px" viewBox="0 0 120 120" version="1.1" xmlns="http://www.w3.org/2000/svg" xmlns:xlink="http://www.w3.org/1999/xlink">
    <title>crowdsourcing-engines</title>
    <g id="Icons-Business-Solutions" stroke="none" stroke-width="1" fill="none" fill-rule="evenodd">
        <g id="crowdsourcing-engines" fill="#58708D" fill-rule="nonzero">
            <path d="M96,48 C109.234375,48 120,37.234375 120,24 C120,10.765625 109.234375,0 96,0 C86.3896485,0 78.1035155,5.69042975 74.274414,13.868164 L67.8476562,11.4960938 C67.923828,11.0039062 68,10.5117188 68,10 C68,4.486328 63.513672,0 58,0 C52.486328,0 48,4.486328 48,10 C48,15.513672 52.486328,20 58,20 C61.5820313,20 64.7060547,18.0898438 66.4716797,15.251953 L72.8876953,17.6201172 C72.3242188,19.65625 72,21.788086 72,24 C72,26.6201172 72.435547,29.1357422 73.2158203,31.498047 L51.2197265,40.8203125 C47.1923827,33.2060547 39.1982422,28 30,28 C27.0195312,28 24.1757812,28.5722655 21.540039,29.5683595 L16.0078125,17.9423828 C18.4179687,16.1142578 20,13.25 20,10 C20,4.486328 15.513672,0 10,0 C4.486328,0 -7.10542736e-15,4.486328 -7.10542736e-15,10 C-7.10542736e-15,15.513672 4.486328,20 10,20 C10.8320312,20 11.6298827,19.868164 12.404297,19.673828 L17.9296875,31.288086 C10.8076172,35.4560547 6,43.1679688 6,52 C6,60.2958985 10.232422,67.618164 16.6484375,71.9296875 L12.9902345,78.5058595 C12.038086,78.2060547 11.0478515,78 10,78 C4.486328,78 -7.10542736e-15,82.486328 -7.10542736e-15,88 C-7.10542736e-15,93.513672 4.486328,98 10,98 C15.513672,98 20,93.513672 20,88 C20,84.9716797 18.618164,82.2861328 16.486328,80.4521485 L20.1523437,73.8623047 C23.1601562,75.2236327 26.4882812,76 30,76 C35.4882812,76 40.5361327,74.1279298 44.5839845,71.015625 L52.4560547,79.6757812 C48.4638672,83.9638672 46,89.6923828 46,96 C46,97.2236327 46.1220702,98.4160155 46.2978515,99.5898438 L37.0361327,101.788086 C35.4423827,98.3798827 32.0039062,96 28,96 C22.486328,96 18,100.486328 18,106 C18,111.513672 22.486328,116 28,116 C33.513672,116 38,111.513672 38,106 C38,105.889649 37.9697265,105.786133 37.9677735,105.675781 L47.211914,103.484375 C50.3642577,113.061523 59.3798827,120 70,120 C83.234375,120 94,109.234375 94,96 C94,91.8964845 92.961914,88.0322265 91.1376953,84.6523438 L102.885742,77.013672 C104.702149,78.8535155 107.217774,80 110,80 C115.513672,80 120,75.513672 120,70 C120,64.486328 115.513672,60 110,60 C104.486328,60 100,64.486328 100,70 C100,71.2919923 100.265625,72.5195312 100.713867,73.654297 L88.9384765,81.3095702 C86.5820312,78.2802735 83.522461,75.8339845 80,74.209961 L89.7617188,47.1484375 C91.7539062,47.685547 93.8398438,48 96,48 Z M58,16 C54.6923827,16 52,13.3076172 52,10 C52,6.69238275 54.6923827,4 58,4 C61.3076172,4 64,6.69238275 64,10 C64,13.3076172 61.3076172,16 58,16 Z M4,10 C4,6.69238275 6.69238275,4 10,4 C13.3076172,4 16,6.69238275 16,10 C16,13.3076172 13.3076172,16 10,16 C6.69238275,16 4,13.3076172 4,10 Z M10,94 C6.69238275,94 4,91.3076172 4,88 C4,84.6923828 6.69238275,82 10,82 C13.3076172,82 16,84.6923828 16,88 C16,91.3076172 13.3076172,94 10,94 Z M28,112 C24.6923828,112 22,109.307617 22,106 C22,102.692383 24.6923828,100 28,100 C31.3076172,100 34,102.692383 34,106 C34,109.307617 31.3076172,112 28,112 Z M110,64 C113.307617,64 116,66.6923828 116,70 C116,73.3076172 113.307617,76 110,76 C106.692383,76 104,73.3076172 104,70 C104,66.6923828 106.692383,64 110,64 Z M84.2216797,40.1279297 C85.1142578,35.501953 89.1923828,32 94,32 L98,32 C102.807617,32 106.885742,35.501953 107.77832,40.1279297 C104.469727,42.5498047 100.40625,44 96,44 C91.59375,44 87.5302735,42.5498047 84.2216797,40.1279297 Z M96,28 C92.6923828,28 90,25.3076172 90,22 C90,18.6923828 92.6923828,16 96,16 C99.3076172,16 102,18.6923828 102,22 C102,25.3076172 99.3076172,28 96,28 Z M96,4 C107.02832,4 116,12.9716797 116,24 C116,29 114.141602,33.5683595 111.095703,37.078125 C109.694336,33.3876953 106.772461,30.4423828 103.131836,28.9882812 C104.902344,27.1835938 106,24.7197265 106,22 C106,16.486328 101.513672,12 96,12 C90.486328,12 86,16.486328 86,22 C86,24.7197265 87.0976562,27.1835938 88.868164,28.9882812 C85.227539,30.4423828 82.305664,33.3876953 80.904297,37.078125 C77.8583985,33.5683595 76,29 76,24 C76,12.9716797 84.9716798,4 96,4 L96,4 Z M10,52 C10,40.9716797 18.9716797,32 30,32 C41.0283203,32 50,40.9716797 50,52 C50,57.015625 48.1298828,61.595703 45.0683595,65.1103515 C43.671875,61.40625 40.7441405,58.446289 37.09375,56.9882813 C38.8623047,55.1835938 39.959961,52.7197265 39.959961,50 C39.959961,44.486328 35.4736328,40 29.959961,40 C24.446289,40 19.959961,44.486328 19.959961,50 C19.959961,52.7197265 21.0576172,55.1835938 22.828125,56.9882813 C19.1982422,58.435547 16.2802735,61.3701173 14.8740235,65.0458985 C11.845703,61.540039 10,56.986328 10,52 L10,52 Z M23.959961,50 C23.959961,46.6923828 26.6523438,44 29.959961,44 C33.267578,44 35.959961,46.6923828 35.959961,50 C35.959961,53.3076172 33.267578,56 29.959961,56 C26.6523438,56 23.959961,53.3076172 23.959961,50 Z M18.1884765,68.1015625 C19.0898438,63.4882812 23.1621095,60 27.959961,60 L31.959961,60 C36.7763672,60 40.8623047,63.513672 41.7421875,68.154297 C38.4404297,70.5615235 34.3896485,72 30,72 C25.578125,72 21.501953,70.540039 18.1884765,68.1015625 Z M58.1884765,112.101562 C59.0898438,107.488281 63.1621095,104 67.959961,104 L71.959961,104 C76.7763672,104 80.8623047,107.513672 81.7421875,112.154297 C78.4404297,114.561523 74.3896485,116 70,116 C65.578125,116 61.501953,114.540039 58.1884765,112.101562 Z M69.959961,100 C66.6523438,100 63.959961,97.3076172 63.959961,94 C63.959961,90.6923828 66.6523438,88 69.959961,88 C73.267578,88 75.959961,90.6923828 75.959961,94 C75.959961,97.3076172 73.267578,100 69.959961,100 Z M90,96 C90,101.015625 88.1298828,105.595703 85.0683595,109.110352 C83.671875,105.40625 80.7441405,102.446289 77.09375,100.988281 C78.8623048,99.1835938 79.959961,96.7197265 79.959961,94 C79.959961,88.486328 75.4736328,84 69.959961,84 C64.446289,84 59.959961,88.486328 59.959961,94 C59.959961,96.7197265 61.0576172,99.1835938 62.828125,100.988281 C59.1982422,102.435547 56.2802735,105.370117 54.8740235,109.045898 C51.845703,105.540039 50,100.986328 50,96 C50,84.9716797 58.9716797,76 70,76 C81.0283203,76 90,84.9716797 90,96 Z M76.2382812,72.8515625 C74.2460938,72.314453 72.1601562,72 70,72 C64.5117188,72 59.4638672,73.8720702 55.4160155,76.984375 L47.5439453,68.3242188 C51.5361328,64.0361328 54,58.3076172 54,52 C54,49.3798828 53.564453,46.8642578 52.7841797,44.501953 L74.7802735,35.1796875 C77.2441405,39.8378905 81.1982422,43.576172 86.001953,45.790039 L76.2382812,72.8515625 Z" id="Shape"></path>
        </g>
    </g>
</svg>