<?xml version="1.0" encoding="UTF-8"?>
<svg width="120px" height="120px" viewBox="0 0 120 120" version="1.1" xmlns="http://www.w3.org/2000/svg" xmlns:xlink="http://www.w3.org/1999/xlink">
    <title>data-analytics</title>
    <g id="Icons-Business-Solutions" stroke="none" stroke-width="1" fill="none" fill-rule="evenodd">
        <g id="data-analytics" fill="#58708D" fill-rule="nonzero">
            <path d="M64,24 L84,24 C85.1045695,24 86,23.1045695 86,22 C85.985673,9.85567489 76.1443251,0.0143270013 64,1.77635684e-15 C62.8954305,1.77635684e-15 62,0.8954305 62,2 L62,22 C62,23.1045695 62.8954305,24 64,24 Z M66,4.11 C74.3516662,5.05809858 80.9419014,11.6483338 81.89,20 L66,20 L66,4.11 Z" id="Shape"></path>
            <path d="M94.828,4 L108,4 L108,0 L94,0 C93.4696104,0.000113274811 92.9609855,0.21090125 92.586,0.586 L86.586,6.586 L89.414,9.414 L94.828,4 Z" id="Path"></path>
            <polygon id="Path" points="112 0 120 0 120 4 112 4"></polygon>
            <path d="M30.586,9.414 L33.414,6.586 L27.414,0.586 C27.0390145,0.21090125 26.5303896,0.000113274811 26,0 L12,0 L12,4 L25.172,4 L30.586,9.414 Z" id="Path"></path>
            <polygon id="Path" points="0 0 8 0 8 4 0 4"></polygon>
            <polygon id="Path" points="96 12 112 12 112 16 96 16"></polygon>
            <polygon id="Path" points="116 12 120 12 120 16 116 16"></polygon>
            <polygon id="Path" points="0 12 24 12 24 16 0 16"></polygon>
            <path d="M47.172,68 L34,68 L34,72 L48,72 C48.5303896,71.9998867 49.0390145,71.7890987 49.414,71.414 L55.414,65.414 L52.586,62.586 L47.172,68 Z" id="Path"></path>
            <polygon id="Path" points="22 68 30 68 30 72 22 72"></polygon>
            <polygon id="Path" points="22 56 46 56 46 60 22 60"></polygon>
            <path d="M120.000014,54 C120.010386,43.973446 114.24885,34.8362852 105.196976,30.5240376 C96.1451029,26.2117901 85.4195565,27.494623 77.64,33.82 C77.8716107,32.5596627 77.9920736,31.2814175 78,30 C78,28.8954305 77.1045695,28 76,28 L58,28 L58,10 C58,8.8954305 57.1045695,8 56,8 C46.1726631,8.01903091 37.5473094,14.5472078 34.86,24 L24,24 C18.4771525,24 14,28.4771525 14,34 L14,86 C14,91.5228475 18.4771525,96 24,96 L52,96 L52,108 L46,108 C42.6903944,108.009884 40.0098844,110.690394 40,114 L40,118 C40,119.104569 40.8954305,120 42,120 L78,120 C79.1045695,120 80,119.104569 80,118 L80,114 C79.9901156,110.690394 77.3096056,108.009884 74,108 L68,108 L68,96 L84,96 L84,110 C84,115.522847 88.4771525,120 94,120 C99.5228475,120 104,115.522847 104,110 L104,86 C104,84.8954305 103.104569,84 102,84 L100,84 L100,79.28 C111.705874,76.4849676 119.973327,66.0349068 120.000014,54 Z M54,12.12 L54,30 C54,31.1045695 54.8954305,32 56,32 L73.88,32 C72.8377299,41.3679492 64.7450376,48.3453965 55.325714,47.9973403 C45.9063905,47.6492842 38.3507158,40.0936095 38.0026597,30.674286 C37.6546035,21.2549624 44.6320508,13.1622701 54,12.12 L54,12.12 Z M74,112 C75.1045695,112 76,112.895431 76,114 L76,116 L44,116 L44,114 C44,112.895431 44.8954305,112 46,112 L74,112 Z M56,108 L56,96 L64,96 L64,108 L56,108 Z M86,84 C84.8954305,84 84,84.8954305 84,86 L84,92 L24,92 C20.6903944,91.9901156 18.0098844,89.3096056 18,86 L18,84 L80,84 L80,80 L18,80 L18,34 C18.0098844,30.6903944 20.6903944,28.0098844 24,28 L34.1,28 C34.04,28.66 34,29.32 34,30 C33.9920661,38.2381568 38.5918946,45.7889646 45.9159815,49.5605744 C53.2400685,53.3321842 62.0583573,52.6911663 68.76,47.9 C68.2625745,49.8954265 68.007402,51.9435214 68,54 C68.0266728,66.0349068 76.294126,76.4849676 88,79.28 L88,84 L86,84 Z M100,110 C100,113.313708 97.3137085,116 94,116 C90.6862915,116 88,113.313708 88,110 L88,88 L100,88 L100,110 Z M92,84 L92,79.9 C92.66,79.94 93.32,80 94,80 C94.68,80 95.34,79.94 96,79.9 L96,84 L92,84 Z M94,76 C81.8497355,76 72,66.1502645 72,54 C72,41.8497355 81.8497355,32 94,32 C106.150264,32 116,41.8497355 116,54 C115.992277,66.1470643 106.147064,75.9922774 94,76 Z" id="Shape"></path>
            <path d="M94,36 C84.0588745,36 76,44.0588745 76,54 C76,63.9411255 84.0588745,72 94,72 C103.941125,72 112,63.9411255 112,54 C111.987878,44.0638999 103.9361,36.0121219 94,36 L94,36 Z M94,68 C86.2680135,68 80,61.7319865 80,54 C80,46.2680135 86.2680135,40 94,40 C101.731986,40 108,46.2680135 108,54 C107.991183,61.7283313 101.728331,67.9911827 94,68 L94,68 Z" id="Shape"></path>
            <path d="M84,54 L88,54 C88,50.6862915 90.6862915,48 94,48 L94,44 C88.4798937,44.0066122 84.0066122,48.4798937 84,54 Z" id="Path"></path>
            <polygon id="Path" points="92 92 96 92 96 96 92 96"></polygon>
            <polygon id="Path" points="92 100 96 100 96 112 92 112"></polygon>
        </g>
    </g>
</svg>