<?xml version="1.0" encoding="UTF-8"?>
<svg width="120px" height="120px" viewBox="0 0 120 120" version="1.1" xmlns="http://www.w3.org/2000/svg" xmlns:xlink="http://www.w3.org/1999/xlink">
    <title>gamification-logics</title>
    <g id="Icons-Business-Solutions" stroke="none" stroke-width="1" fill="none" fill-rule="evenodd">
        <g id="gamification-logics" fill="#58708D" fill-rule="nonzero">
            <path d="M110.322581,0 L63.8709677,0 C58.5348387,0 54.1935484,4.34129032 54.1935484,9.67741935 L54.1935484,19.3548387 L9.67741935,19.3548387 C4.34129032,19.3548387 0,23.696129 0,29.0322581 L0,60 C0,65.336129 4.34129032,69.6774194 9.67741935,69.6774194 L44.516129,69.6774194 C44.516129,75.1606452 47.3883871,79.9741935 51.6987097,82.7264516 C41.8974194,86.1677419 34.8387097,95.4890323 34.8387097,106.451613 L34.8387097,120 L85.1612903,120 L85.1612903,106.451613 C85.1612903,95.4890323 78.1025806,86.1677419 68.3012903,82.7264516 C72.6116129,79.9741935 75.483871,75.1606452 75.483871,69.6774194 C75.483871,63.1935484 71.4735484,57.6367742 65.8064516,55.3335484 L65.8064516,50.3225806 L110.322581,50.3225806 C115.65871,50.3225806 120,45.9812903 120,40.6451613 L120,9.67741935 C120,4.34129032 115.65871,0 110.322581,0 Z M81.2903226,106.451613 L81.2903226,116.129032 L75.483871,116.129032 L75.483871,98.7096774 L71.6129032,98.7096774 L71.6129032,116.129032 L48.3870968,116.129032 L48.3870968,98.7096774 L44.516129,98.7096774 L44.516129,116.129032 L38.7096774,116.129032 L38.7096774,106.451613 C38.7096774,94.7129032 48.2612903,85.1612903 60,85.1612903 C71.7387097,85.1612903 81.2903226,94.7129032 81.2903226,106.451613 Z M71.6129032,69.6774194 C71.6129032,76.0819355 66.4045161,81.2903226 60,81.2903226 C53.5954839,81.2903226 48.3870968,76.0819355 48.3870968,69.6774194 C48.3870968,63.2729032 53.5954839,58.0645161 60,58.0645161 C66.4045161,58.0645161 71.6129032,63.2729032 71.6129032,69.6774194 Z M60,54.1935484 C52.8019355,54.1935484 46.7516129,59.1387097 45.0251613,65.8064516 L9.67741935,65.8064516 C6.47612903,65.8064516 3.87096774,63.2012903 3.87096774,60 L3.87096774,29.0322581 C3.87096774,25.8309677 6.47612903,23.2258065 9.67741935,23.2258065 L56.1290323,23.2258065 C59.3303226,23.2258065 61.9354839,25.8309677 61.9354839,29.0322581 L61.9354839,54.3270968 C61.3006452,54.2477419 60.656129,54.1935484 60,54.1935484 Z M116.129032,40.6451613 C116.129032,43.8464516 113.523871,46.4516129 110.322581,46.4516129 L65.8064516,46.4516129 L65.8064516,29.0322581 C65.8064516,24.36 62.4754839,20.4503226 58.0645161,19.5503226 L58.0645161,9.67741935 C58.0645161,6.47612903 60.6696774,3.87096774 63.8709677,3.87096774 L110.322581,3.87096774 C113.523871,3.87096774 116.129032,6.47612903 116.129032,9.67741935 L116.129032,40.6451613 Z" id="Shape"></path>
            <path d="M102.836129,17.4193548 L92.4270968,17.4193548 L89.6787097,7.79806452 L84.5148387,7.79806452 L81.7664516,17.4193548 L71.3574194,17.4193548 L69.8806452,21.8148387 L78.8748387,27.8148387 L74.6922581,37.5754839 L78.6212903,40.5464516 L87.0967742,33.4877419 L95.5703226,40.5464516 L99.4993548,37.5754839 L95.3167742,27.8148387 L104.310968,21.8148387 L102.836129,17.4193548 Z M90.4896774,26.3787097 L93.7548387,33.9948387 L87.0967742,28.4477419 L80.4406452,33.9929032 L83.7058065,26.3767742 L76.0703226,21.2903226 L84.6851613,21.2903226 L87.0967742,12.8516129 L89.5083871,21.2903226 L98.1232258,21.2903226 L90.4896774,26.3787097 Z" id="Shape"></path>
            <path d="M41.6070968,38.0554839 L32.8935484,30.3135484 L24.183871,38.0554839 L15.4064516,30.243871 L11.3090323,34.3412903 L20.1154839,58.5580645 L21.9019355,57.9658065 C21.9580645,57.9464516 27.4954839,56.1290323 32.9032258,56.1290323 C38.3109677,56.1290323 43.8483871,57.9464516 43.9064516,57.9658065 L45.6929032,58.56 L54.4993548,34.3412903 L50.403871,30.243871 L41.6070968,38.0554839 Z M43.3180645,53.76 C41.0632258,53.1580645 37.0122581,52.2580645 32.9032258,52.2580645 C28.7941935,52.2580645 24.7432258,53.1580645 22.4883871,53.76 L16.0180645,35.9709677 L24.183871,43.2348387 L32.8935484,35.4929032 L41.6070968,43.2348387 L49.7883871,35.9670968 L43.3180645,53.76 Z" id="Shape"></path>
            <path d="M106.451613,54.1935484 L98.7096774,54.1935484 C91.2406452,54.1935484 85.1612903,60.2729032 85.1612903,67.7419355 L85.1612903,81.2903226 L106.451613,81.2903226 C113.920645,81.2903226 120,75.2109677 120,67.7419355 C120,60.2729032 113.920645,54.1935484 106.451613,54.1935484 Z M106.451613,77.4193548 L89.0322581,77.4193548 L89.0322581,67.7419355 C89.0322581,62.4058065 93.3735484,58.0645161 98.7096774,58.0645161 L106.451613,58.0645161 C111.787742,58.0645161 116.129032,62.4058065 116.129032,67.7419355 C116.129032,73.0780645 111.787742,77.4193548 106.451613,77.4193548 Z" id="Shape"></path>
            <polygon id="Path" points="92.9032258 61.9354839 96.7741935 61.9354839 96.7741935 65.8064516 92.9032258 65.8064516"></polygon>
            <polygon id="Path" points="100.645161 61.9354839 104.516129 61.9354839 104.516129 65.8064516 100.645161 65.8064516"></polygon>
            <polygon id="Path" points="108.387097 61.9354839 112.258065 61.9354839 112.258065 65.8064516 108.387097 65.8064516"></polygon>
            <polygon id="Path" points="92.9032258 69.6774194 112.258065 69.6774194 112.258065 73.5483871 92.9032258 73.5483871"></polygon>
            <path d="M34.8387097,73.5483871 L13.5483871,73.5483871 C6.07935484,73.5483871 0,79.6277419 0,87.0967742 C0,94.5658065 6.07935484,100.645161 13.5483871,100.645161 L21.2903226,100.645161 C28.7593548,100.645161 34.8387097,94.5658065 34.8387097,87.0967742 L34.8387097,73.5483871 Z M30.9677419,87.0967742 C30.9677419,92.4329032 26.6264516,96.7741935 21.2903226,96.7741935 L13.5483871,96.7741935 C8.21225806,96.7741935 3.87096774,92.4329032 3.87096774,87.0967742 C3.87096774,81.7606452 8.21225806,77.4193548 13.5483871,77.4193548 L30.9677419,77.4193548 L30.9677419,87.0967742 Z" id="Shape"></path>
            <polygon id="Path" points="23.2258065 89.0322581 27.0967742 89.0322581 27.0967742 92.9032258 23.2258065 92.9032258"></polygon>
            <polygon id="Path" points="15.483871 89.0322581 19.3548387 89.0322581 19.3548387 92.9032258 15.483871 92.9032258"></polygon>
            <polygon id="Path" points="7.74193548 89.0322581 11.6129032 89.0322581 11.6129032 92.9032258 7.74193548 92.9032258"></polygon>
            <polygon id="Path" points="7.74193548 81.2903226 27.0967742 81.2903226 27.0967742 85.1612903 7.74193548 85.1612903"></polygon>
            <polygon id="Path" points="30.9677419 44.516129 34.8387097 44.516129 34.8387097 48.3870968 30.9677419 48.3870968"></polygon>
        </g>
    </g>
</svg>