<?xml version="1.0" encoding="UTF-8"?>
<svg width="117px" height="115px" viewBox="0 0 117 115" version="1.1" xmlns="http://www.w3.org/2000/svg" xmlns:xlink="http://www.w3.org/1999/xlink">
    <title>innovation-jobs</title>
    <g id="PPT-Assets" stroke="none" stroke-width="1" fill="none" fill-rule="evenodd">
        <g id="innovation-jobs">
            <path d="M66.8182772,101 C99.1169172,101 105.128365,80.7477082 97.8054639,54.4468024 C90.4825625,28.1458966 95.9671423,14 63.6685022,14 C31.3698622,14 19.866574,32.4436532 16.3697624,62.4739253 C12.8729509,92.5041974 34.5196372,101 66.8182772,101 Z" id="Oval-Copy-21" fill="#F35A63"></path>
            <path d="M66.8182772,101 C99.1169172,101 105.128365,80.7477082 97.8054639,54.4468024 C90.4825625,28.1458966 95.9671423,14 63.6685022,14 C31.3698622,14 19.866574,32.4436532 16.3697624,62.4739253 C12.8729509,92.5041974 34.5196372,101 66.8182772,101 Z" id="Oval-Copy-20" fill="#F35A63" opacity="0.2" transform="translate(58.298067, 57.500000) rotate(63.000000) translate(-58.298067, -57.500000) "></path>
            <g id="Group" transform="translate(36.336362, 35.063560)">
                <polygon id="Path" points="0 0 44 0 44 44 0 44"></polygon>
                <rect id="Rectangle" stroke="#FFFFFF" stroke-width="2.75" stroke-linecap="round" stroke-linejoin="round" x="5.5" y="12.8333333" width="33" height="23.8333333" rx="3.66666667"></rect>
                <path d="M14.6666667,12.8333333 L14.6666667,9.16666667 C14.6666667,7.14162258 16.3082893,5.5 18.3333333,5.5 L25.6666667,5.5 C27.6917107,5.5 29.3333333,7.14162258 29.3333333,9.16666667 L29.3333333,12.8333333" id="Path" stroke="#FFFFFF" stroke-width="2.75" stroke-linecap="round" stroke-linejoin="round"></path>
                <line x1="22" y1="22" x2="22" y2="22.0183333" id="Path" stroke="#FFFFFF" stroke-width="2.75" stroke-linecap="round" stroke-linejoin="round"></line>
                <path d="M5.5,23.8333333 C15.8784109,29.0630484 28.1215891,29.0630484 38.5,23.8333333" id="Path" stroke="#FFFFFF" stroke-width="2.75" stroke-linecap="round" stroke-linejoin="round"></path>
            </g>
        </g>
    </g>
</svg>