<?xml version="1.0" encoding="UTF-8"?>
<svg width="120px" height="120px" viewBox="0 0 120 120" version="1.1" xmlns="http://www.w3.org/2000/svg" xmlns:xlink="http://www.w3.org/1999/xlink">
    <title>open-innovation-programs</title>
    <g id="PPT-Assets" stroke="none" stroke-width="1" fill="none" fill-rule="evenodd">
        <g id="open-innovation-programs">
            <path d="M65.4304066,101 C93.6296465,101 84.6358942,86.5898726 84.6358942,58.2727273 C84.6358942,29.9555819 93.6296465,7 65.4304066,7 C37.2311667,7 2.56714824,33.5120091 14.3711661,58.2727273 C26.1751839,83.0334455 37.2311667,101 65.4304066,101 Z" id="Oval" fill="#4EDE7F"></path>
            <path d="M76.4304066,107 C104.629646,107 95.6358942,92.5898726 95.6358942,64.2727273 C95.6358942,35.9555819 104.629646,13 76.4304066,13 C48.2311667,13 13.5671482,39.5120091 25.3711661,64.2727273 C37.1751839,89.0334455 48.2311667,107 76.4304066,107 Z" id="Oval-Copy-17" fill="#4EDE7F" opacity="0.2" transform="translate(60.000000, 60.000000) scale(-1, -1) rotate(45.000000) translate(-60.000000, -60.000000) "></path>
            <g id="Group" transform="translate(32.000000, 32.000000)">
                <polygon id="Path" points="0 0 44 0 44 44 0 44"></polygon>
                <path d="M5.5,22 L7.33333333,22 M22,5.5 L22,7.33333333 M36.6666667,22 L38.5,22 M10.2666667,10.2666667 L11.55,11.55 M33.7333333,10.2666667 L32.45,11.55" id="Shape" stroke="#FFFFFF" stroke-width="2.75" stroke-linecap="round" stroke-linejoin="round"></path>
                <path d="M16.5,29.3333333 C13.3435103,26.9659661 12.0560243,22.8443818 13.3037364,19.1012455 C14.5514485,15.3581092 18.0543879,12.8333333 22,12.8333333 C25.9456121,12.8333333 29.4485515,15.3581092 30.6962636,19.1012455 C31.9439757,22.8443818 30.6564897,26.9659661 27.5,29.3333333 C26.0482977,30.7703528 25.3675165,32.8126964 25.6666667,34.8333333 C25.6666667,36.8583774 24.0250441,38.5 22,38.5 C19.9749559,38.5 18.3333333,36.8583774 18.3333333,34.8333333 C18.6324835,32.8126964 17.9517023,30.7703528 16.5,29.3333333" id="Path" stroke="#FFFFFF" stroke-width="2.75" stroke-linecap="round" stroke-linejoin="round"></path>
                <line x1="17.7833333" y1="31.1666667" x2="26.2166667" y2="31.1666667" id="Path" stroke="#FFFFFF" stroke-width="2.75" stroke-linecap="round" stroke-linejoin="round"></line>
            </g>
        </g>
    </g>
</svg>