<?xml version="1.0" encoding="UTF-8"?>
<svg width="117px" height="115px" viewBox="0 0 117 115" version="1.1" xmlns="http://www.w3.org/2000/svg" xmlns:xlink="http://www.w3.org/1999/xlink">
    <title>open-innovation-academy</title>
    <g id="PPT-Assets" stroke="none" stroke-width="1" fill="none" fill-rule="evenodd">
        <g id="open-innovation-academy">
            <path d="M66.8182772,101 C99.1169172,101 105.128365,80.7477082 97.8054639,54.4468024 C90.4825625,28.1458966 95.9671423,14 63.6685022,14 C31.3698622,14 19.866574,32.4436532 16.3697624,62.4739253 C12.8729509,92.5041974 34.5196372,101 66.8182772,101 Z" id="Oval-Copy-11" fill="#58708D"></path>
            <path d="M66.8182772,101 C99.1169172,101 105.128365,80.7477082 97.8054639,54.4468024 C90.4825625,28.1458966 95.9671423,14 63.6685022,14 C31.3698622,14 19.866574,32.4436532 16.3697624,62.4739253 C12.8729509,92.5041974 34.5196372,101 66.8182772,101 Z" id="Oval-Copy-18" fill="#58708D" opacity="0.2" transform="translate(58.298067, 57.500000) rotate(63.000000) translate(-58.298067, -57.500000) "></path>
            <g id="Group" transform="translate(37.320210, 35.918386)">
                <polygon id="Path" points="0 0 44 0 44 44 0 44"></polygon>
                <circle id="Oval" stroke="#FFFFFF" stroke-width="2.75" stroke-linecap="round" stroke-linejoin="round" cx="22" cy="16.5" r="11"></circle>
                <polyline id="Path" stroke="#FFFFFF" stroke-width="2.75" stroke-linecap="round" stroke-linejoin="round" transform="translate(29.883333, 30.154334) rotate(-30.000000) translate(-29.883333, -30.154334) " points="24.3833333 23.9210005 24.3833333 36.3876672 29.8833333 32.7210005 35.3833333 36.3876672 35.3833333 23.9210005"></polyline>
                <polyline id="Path" stroke="#FFFFFF" stroke-width="2.75" stroke-linecap="round" stroke-linejoin="round" transform="translate(14.116667, 30.154334) rotate(30.000000) translate(-14.116667, -30.154334) " points="8.61666667 23.9210005 8.61666667 36.3876672 14.1166667 32.7210005 19.6166667 36.3876672 19.6166667 23.9210005"></polyline>
            </g>
        </g>
    </g>
</svg>