<?xml version="1.0" encoding="UTF-8"?>
<svg width="120px" height="120px" viewBox="0 0 120 120" version="1.1" xmlns="http://www.w3.org/2000/svg" xmlns:xlink="http://www.w3.org/1999/xlink">
    <title>proprietary-algorithms</title>
    <g id="Icons-Business-Solutions" stroke="none" stroke-width="1" fill="none" fill-rule="evenodd">
        <g id="proprietary-algorithms" fill="#58708D" fill-rule="nonzero">
            <path d="M22.928,69.6 C20.828,68.586 18.484,68 16,68 C7.178,68 0,75.178 0,84 C0,92.822 7.178,100 16,100 C21.536,100 26.422,97.172 29.296,92.886 L44.41,100.452 C44.15,101.594 44,102.78 44,104 C44,112.822 51.178,120 60,120 C68.822,120 76,112.822 76,104 C76,100.684 74.986,97.602 73.25,95.044 L94.488,72.838 C97.152,74.814 100.436,76 104,76 C112.822,76 120,68.822 120,60 C120,51.178 112.822,44 104,44 C100.308,44 96.916,45.268 94.204,47.376 L72.624,25.796 C74.732,23.084 76,19.692 76,16 C76,7.178 68.822,0 60,0 C51.178,0 44,7.178 44,16 C44,17.216 44.148,18.398 44.408,19.538 L30.224,24.706 C27.564,19.544 22.194,16 16,16 C7.178,16 0,23.178 0,32 C0,40.822 7.178,48 16,48 C18.276,48 20.438,47.516 22.4,46.654 L29.762,59.044 L22.928,69.6 Z M16,96 C9.382,96 4,90.618 4,84 C4,77.382 9.382,72 16,72 C22.618,72 28,77.382 28,84 C28,90.618 22.618,96 16,96 Z M31.078,89.302 C31.664,87.64 32,85.86 32,84 C32,79.094 29.776,74.702 26.29,71.766 L32.042,62.882 L49.384,92.064 C47.924,93.364 46.702,94.92 45.796,96.67 L31.078,89.302 Z M60,32 C63.692,32 67.084,30.732 69.796,28.624 L91.378,50.206 C90.084,51.87 89.116,53.792 88.558,55.884 L75.994,54.156 C75.992,54.104 76,54.052 76,54 C76,45.178 68.822,38 60,38 C54.464,38 49.576,40.828 46.704,45.114 L44.318,43.922 L53.074,30.4 C55.172,31.414 57.516,32 60,32 Z M62,88.138 L62,69.86 C68.5,69.044 73.788,64.32 75.444,58.116 L88.008,59.844 C88.008,59.896 88,59.948 88,60 C88,63.82 89.348,67.326 91.59,70.08 L70.59,92.038 C68.236,89.952 65.274,88.55 62,88.138 L62,88.138 Z M60,42 C66.618,42 72,47.382 72,54 C72,60.618 66.618,66 60,66 C53.382,66 48,60.618 48,54 C48,47.382 53.382,42 60,42 L60,42 Z M44.922,48.698 C44.336,50.36 44,52.14 44,54 C44,62.144 50.12,68.872 58,69.862 L58,88.14 C56.104,88.378 54.314,88.946 52.684,89.788 L34.468,59.134 L42.13,47.302 L44.922,48.698 Z M60,116 C53.382,116 48,110.618 48,104 C48,97.382 53.382,92 60,92 C66.618,92 72,97.382 72,104 C72,110.618 66.618,116 60,116 Z M104,48 C110.618,48 116,53.382 116,60 C116,66.618 110.618,72 104,72 C97.382,72 92,66.618 92,60 C92,53.382 97.382,48 104,48 Z M60,4 C66.618,4 72,9.382 72,16 C72,22.618 66.618,28 60,28 C53.382,28 48,22.618 48,16 C48,9.382 53.382,4 60,4 Z M45.776,23.294 C46.754,25.192 48.092,26.87 49.71,28.234 L40.718,42.122 L31.078,37.302 C31.664,35.64 32,33.86 32,32 C32,30.784 31.852,29.602 31.592,28.462 L45.776,23.294 Z M4,32 C4,25.382 9.382,20 16,20 C22.618,20 28,25.382 28,32 C28,38.618 22.618,44 16,44 C9.382,44 4,38.618 4,32 Z M25.83,44.598 C27.17,43.55 28.346,42.302 29.296,40.886 L38.53,45.502 L32.188,55.296 L25.83,44.598 Z" id="Shape"></path>
        </g>
    </g>
</svg>